# xmcd
#
# Track frame offsets:
#	150
#	35856
#	67961
#	89264
#	104041
#	123394
#	154824
#	185654
#
# Disc length: 2978 seconds
#
# Revision: 1
# Processed by: cddbd v1.5.1PL2 Copyright (c) Steve Scherf et al.
# Submitted via: EasyCDDAExtractor 9.0.0.1
#
DISCID=700ba008
DTITLE=Guns and Roses - Hallam FM Arena Sheffield 18-07-06 Disc 2
DYEAR=2006
DGENRE=Hard Rock
TTITLE0=November Rain
TTITLE1=Richard Solo
TTITLE2=My Michelle
TTITLE3=You Gotta Move
TTITLE4=Think About You
TTITLE5=Patience
TTITLE6=Nightrain
TTITLE7=Paradise City
EXTD=
EXTT0=
EXTT1=
EXTT2=
EXTT3=
EXTT4=
EXTT5=
EXTT6=
EXTT7=
PLAYORDER=
